<?xml version="1.0" standalone="no"?>
<!DOCTYPE svg PUBLIC "-//W3C//DTD SVG 20010904//EN"
 "http://www.w3.org/TR/2001/REC-SVG-20010904/DTD/svg10.dtd">
<svg version="1.0" xmlns="http://www.w3.org/2000/svg"
 width="1040.000000pt" height="1491.000000pt" viewBox="0 0 1040.000000 1491.000000"
 preserveAspectRatio="xMidYMid meet">

<g transform="translate(0.000000,1491.000000) scale(0.100000,-0.100000)"
fill="#000000" stroke="none">
<path d="M4095 14894 c-96 -18 -138 -30 -191 -54 -232 -105 -413 -334 -546
-689 -31 -83 -3184 -11992 -3268 -12345 -11 -44 -32 -160 -47 -256 -23 -150
-27 -206 -26 -390 0 -187 3 -225 21 -292 28 -101 68 -182 117 -234 32 -35 314
-236 737 -526 91 -62 144 -76 309 -82 79 -3 394 -8 699 -11 l555 -4 -60 19
c-123 40 -208 148 -257 325 -19 70 -21 107 -22 290 0 209 9 311 50 533 9 46
576 2206 1260 4800 685 2595 1386 5253 1559 5907 172 655 339 1286 370 1404
70 264 110 383 181 529 90 189 178 307 314 419 58 48 80 58 216 103 99 32 169
50 201 50 57 0 161 -24 206 -46 56 -29 18 -1 -314 230 -180 124 -361 242 -404
263 l-78 37 -291 7 c-350 9 -1263 18 -1291 13z"/>
<path d="M5718 10144 l-437 -1715 296 -955 c162 -526 293 -957 291 -959 -4 -5
-1105 -245 -1121 -245 -10 0 -50 -143 -136 -482 -67 -266 -126 -496 -132 -512
-5 -16 -7 -31 -5 -33 3 -4 3488 757 3495 763 5 5 -1802 5854 -1809 5854 -3 0
-202 -772 -442 -1716z"/>
<path d="M7685 4376 c-379 -84 -790 -174 -912 -201 -122 -26 -220 -52 -217
-56 3 -5 101 -345 220 -756 118 -411 235 -802 261 -868 89 -233 175 -380 282
-485 58 -57 612 -451 789 -562 111 -68 91 -67 835 -74 l672 -6 -63 31 c-78 38
-164 119 -232 217 -71 103 -163 299 -214 457 -24 73 -193 655 -377 1294 -184
640 -338 1162 -344 1162 -5 -1 -320 -69 -700 -153z"/>
<path d="M9628 1363 c6 -2 18 -2 25 0 6 3 1 5 -13 5 -14 0 -19 -2 -12 -5z"/>
</g>
</svg>
