<?xml version="1.0" standalone="no"?>
<!DOCTYPE svg PUBLIC "-//W3C//DTD SVG 20010904//EN"
 "http://www.w3.org/TR/2001/REC-SVG-20010904/DTD/svg10.dtd">
<svg version="1.0" xmlns="http://www.w3.org/2000/svg"
 width="342.000000pt" height="292.000000pt" viewBox="0 0 342.000000 292.000000"
 preserveAspectRatio="xMidYMid meet">

<g transform="translate(0.000000,292.000000) scale(0.100000,-0.100000)"
fill="#000000" stroke="none">
<path d="M1265 2899 c-68 -9 -115 -30 -165 -75 -68 -61 -85 -104 -85 -210 0
-83 2 -94 30 -140 41 -65 103 -103 191 -115 141 -21 219 -40 280 -68 139 -65
200 -163 217 -346 2 -29 3 -29 28 20 100 192 139 443 91 592 -41 129 -111 207
-247 274 -120 58 -237 82 -340 68z"/>
<path d="M1276 1930 c-275 -44 -507 -189 -655 -410 -119 -179 -166 -348 -158
-570 4 -106 11 -154 32 -225 86 -294 315 -534 600 -632 527 -179 1075 112
1228 652 25 90 34 298 17 402 -60 377 -358 689 -733 769 -90 19 -253 26 -331
14z m-211 -411 c149 -70 177 -283 56 -422 -69 -78 -214 -118 -305 -83 -46 18
-60 34 -46 56 6 10 15 10 40 1 58 -20 141 -14 198 15 175 87 170 341 -8 384
-44 11 -57 10 -95 -5 -83 -31 -139 -128 -115 -199 12 -38 43 -70 82 -85 77
-29 167 50 139 121 l-10 23 0 -24 c-2 -58 -78 -91 -129 -55 -33 23 -31 95 3
123 37 28 77 35 118 17 41 -17 63 -46 72 -96 8 -46 -28 -117 -75 -148 -29 -20
-45 -23 -96 -20 -108 7 -168 73 -168 183 0 73 26 129 83 176 73 62 174 77 256
38z m552 -98 c61 -28 127 -94 154 -154 36 -79 34 -192 -4 -269 -56 -114 -162
-172 -302 -166 -82 4 -130 20 -149 50 -18 30 4 38 64 22 150 -39 273 11 329
136 58 127 -13 283 -144 320 -160 45 -297 -109 -225 -251 36 -69 117 -103 183
-76 54 23 85 103 57 147 -7 11 -10 8 -10 -16 0 -43 -40 -78 -87 -77 -54 2 -98
51 -90 101 17 99 142 121 216 37 67 -76 43 -196 -49 -242 -138 -71 -310 45
-310 209 0 95 73 200 161 231 62 22 155 21 206 -2z"/>
</g>
</svg>
